<svg width="255" height="144" viewBox="0 0 255 144" fill="none" xmlns="http://www.w3.org/2000/svg">
<path d="M68.624 101.152C63.248 101.152 58.544 99.936 54.512 97.504C50.48 95.072 47.344 91.776 45.104 87.616C42.864 83.456 41.744 78.848 41.744 73.792C41.744 68.544 42.864 63.904 45.104 59.872C47.408 55.776 50.512 52.544 54.416 50.176C58.384 47.808 62.8 46.624 67.664 46.624C71.76 46.624 75.344 47.296 78.416 48.64C81.552 49.984 84.208 51.84 86.384 54.208C88.56 56.576 90.224 59.296 91.376 62.368C92.528 65.376 93.104 68.64 93.104 72.16C93.104 73.056 93.04 73.984 92.912 74.944C92.848 75.904 92.688 76.736 92.432 77.44H52.112V67.84H85.328L79.376 72.352C79.952 69.408 79.792 66.784 78.896 64.48C78.064 62.176 76.656 60.352 74.672 59.008C72.752 57.664 70.416 56.992 67.664 56.992C65.04 56.992 62.704 57.664 60.656 59.008C58.608 60.288 57.04 62.208 55.952 64.768C54.928 67.264 54.544 70.304 54.8 73.888C54.544 77.088 54.96 79.936 56.048 82.432C57.2 84.864 58.864 86.752 61.04 88.096C63.28 89.44 65.84 90.112 68.72 90.112C71.6 90.112 74.032 89.504 76.016 88.288C78.064 87.072 79.664 85.44 80.816 83.392L90.992 88.384C89.968 90.88 88.368 93.088 86.192 95.008C84.016 96.928 81.424 98.432 78.416 99.52C75.472 100.608 72.208 101.152 68.624 101.152ZM117.709 101.152C112.141 101.152 107.277 99.84 103.117 97.216C99.0213 94.528 96.2053 90.912 94.6693 86.368L104.077 81.856C105.421 84.8 107.277 87.104 109.645 88.768C112.077 90.432 114.765 91.264 117.709 91.264C120.013 91.264 121.837 90.752 123.181 89.728C124.525 88.704 125.197 87.36 125.197 85.696C125.197 84.672 124.909 83.84 124.333 83.2C123.821 82.496 123.085 81.92 122.125 81.472C121.229 80.96 120.237 80.544 119.149 80.224L110.605 77.824C106.189 76.544 102.829 74.592 100.525 71.968C98.2853 69.344 97.1653 66.24 97.1653 62.656C97.1653 59.456 97.9653 56.672 99.5653 54.304C101.229 51.872 103.501 49.984 106.381 48.64C109.325 47.296 112.685 46.624 116.461 46.624C121.389 46.624 125.741 47.808 129.517 50.176C133.293 52.544 135.981 55.872 137.581 60.16L127.981 64.672C127.085 62.304 125.581 60.416 123.469 59.008C121.357 57.6 118.989 56.896 116.365 56.896C114.253 56.896 112.589 57.376 111.373 58.336C110.157 59.296 109.549 60.544 109.549 62.08C109.549 63.04 109.805 63.872 110.317 64.576C110.829 65.28 111.533 65.856 112.429 66.304C113.389 66.752 114.477 67.168 115.693 67.552L124.045 70.048C128.333 71.328 131.629 73.248 133.933 75.808C136.301 78.368 137.485 81.504 137.485 85.216C137.485 88.352 136.653 91.136 134.989 93.568C133.325 95.936 131.021 97.792 128.077 99.136C125.133 100.48 121.677 101.152 117.709 101.152ZM160.974 101.152C156.942 101.152 153.422 100.256 150.414 98.464C147.47 96.672 145.198 94.176 143.598 90.976C142.062 87.776 141.294 84.032 141.294 79.744V47.776H153.87V78.688C153.87 80.864 154.286 82.784 155.118 84.448C156.014 86.048 157.262 87.328 158.862 88.288C160.526 89.184 162.382 89.632 164.43 89.632C166.478 89.632 168.302 89.184 169.902 88.288C171.502 87.328 172.75 86.016 173.646 84.352C174.542 82.688 174.99 80.704 174.99 78.4V47.776H187.566V100H175.662V89.728L176.718 91.552C175.502 94.752 173.486 97.152 170.67 98.752C167.918 100.352 164.686 101.152 160.974 101.152ZM194.456 119.2V47.776H206.264V58.144L205.112 55.552C206.904 52.736 209.336 50.56 212.408 49.024C215.48 47.424 219.032 46.624 223.064 46.624C227.992 46.624 232.44 47.84 236.408 50.272C240.376 52.704 243.512 55.968 245.816 60.064C248.184 64.16 249.368 68.768 249.368 73.888C249.368 78.944 248.216 83.552 245.912 87.712C243.608 91.872 240.472 95.168 236.504 97.6C232.536 99.968 228.024 101.152 222.968 101.152C219.192 101.152 215.704 100.416 212.504 98.944C209.368 97.408 206.872 95.232 205.016 92.416L207.032 89.92V119.2H194.456ZM221.528 89.632C224.408 89.632 226.968 88.96 229.208 87.616C231.448 86.272 233.176 84.416 234.392 82.048C235.672 79.68 236.312 76.96 236.312 73.888C236.312 70.816 235.672 68.128 234.392 65.824C233.176 63.456 231.448 61.6 229.208 60.256C226.968 58.848 224.408 58.144 221.528 58.144C218.776 58.144 216.28 58.816 214.04 60.16C211.864 61.504 210.136 63.392 208.856 65.824C207.64 68.192 207.032 70.88 207.032 73.888C207.032 76.96 207.64 79.68 208.856 82.048C210.136 84.416 211.864 86.272 214.04 87.616C216.28 88.96 218.776 89.632 221.528 89.632Z" fill="white"/>
<path d="M123.264 139L129.432 121.12H133.656L139.824 139H136.272L135 135.16H128.088L126.792 139H123.264ZM129.024 132.28H134.064L131.088 123.376H132L129.024 132.28ZM145.953 139.288C144.689 139.288 143.561 138.992 142.569 138.4C141.577 137.792 140.793 136.968 140.217 135.928C139.641 134.888 139.353 133.736 139.353 132.472C139.353 131.192 139.641 130.04 140.217 129.016C140.793 127.992 141.577 127.176 142.569 126.568C143.577 125.96 144.697 125.656 145.929 125.656C146.921 125.656 147.801 125.856 148.569 126.256C149.353 126.64 149.969 127.184 150.417 127.888L149.937 128.536V120.832H153.081V139H150.105V136.48L150.441 137.104C149.993 137.808 149.369 138.352 148.569 138.736C147.769 139.104 146.897 139.288 145.953 139.288ZM146.289 136.408C147.009 136.408 147.641 136.24 148.185 135.904C148.729 135.568 149.153 135.104 149.457 134.512C149.777 133.92 149.937 133.24 149.937 132.472C149.937 131.72 149.777 131.048 149.457 130.456C149.153 129.848 148.729 129.376 148.185 129.04C147.641 128.704 147.009 128.536 146.289 128.536C145.585 128.536 144.953 128.712 144.393 129.064C143.833 129.4 143.393 129.864 143.073 130.456C142.769 131.032 142.617 131.704 142.617 132.472C142.617 133.24 142.769 133.92 143.073 134.512C143.393 135.104 143.833 135.568 144.393 135.904C144.953 136.24 145.585 136.408 146.289 136.408ZM154.806 139V125.944H157.758V128.968L157.422 128.464C157.662 127.52 158.142 126.816 158.862 126.352C159.582 125.888 160.43 125.656 161.406 125.656C162.478 125.656 163.422 125.936 164.238 126.496C165.054 127.056 165.582 127.792 165.822 128.704L164.934 128.776C165.334 127.736 165.934 126.96 166.734 126.448C167.534 125.92 168.454 125.656 169.494 125.656C170.422 125.656 171.246 125.864 171.966 126.28C172.702 126.696 173.278 127.28 173.694 128.032C174.11 128.768 174.318 129.624 174.318 130.6V139H171.174V131.344C171.174 130.768 171.07 130.272 170.862 129.856C170.654 129.44 170.366 129.12 169.998 128.896C169.63 128.656 169.182 128.536 168.654 128.536C168.158 128.536 167.718 128.656 167.334 128.896C166.95 129.12 166.654 129.44 166.446 129.856C166.238 130.272 166.134 130.768 166.134 131.344V139H162.99V131.344C162.99 130.768 162.886 130.272 162.678 129.856C162.47 129.44 162.174 129.12 161.79 128.896C161.422 128.656 160.982 128.536 160.47 128.536C159.974 128.536 159.534 128.656 159.15 128.896C158.766 129.12 158.47 129.44 158.262 129.856C158.054 130.272 157.95 130.768 157.95 131.344V139H154.806ZM175.778 139V125.944H178.922V139H175.778ZM175.778 124.48V121.12H178.922V124.48H175.778ZM180.625 139V125.944H183.577V128.512L183.337 128.056C183.641 127.272 184.137 126.68 184.825 126.28C185.529 125.864 186.345 125.656 187.273 125.656C188.233 125.656 189.081 125.864 189.817 126.28C190.569 126.696 191.153 127.28 191.569 128.032C191.985 128.768 192.193 129.624 192.193 130.6V139H189.049V131.344C189.049 130.768 188.937 130.272 188.713 129.856C188.489 129.44 188.177 129.12 187.777 128.896C187.393 128.656 186.937 128.536 186.409 128.536C185.897 128.536 185.441 128.656 185.041 128.896C184.641 129.12 184.329 129.44 184.105 129.856C183.881 130.272 183.769 130.768 183.769 131.344V139H180.625ZM196.981 139V121.12H203.653C204.869 121.12 205.941 121.344 206.869 121.792C207.813 122.224 208.549 122.864 209.077 123.712C209.605 124.544 209.869 125.56 209.869 126.76C209.869 127.944 209.597 128.96 209.053 129.808C208.525 130.64 207.797 131.28 206.869 131.728C205.941 132.176 204.869 132.4 203.653 132.4H200.245V139H196.981ZM200.245 129.52H203.701C204.293 129.52 204.805 129.408 205.237 129.184C205.669 128.944 206.005 128.616 206.245 128.2C206.485 127.784 206.605 127.304 206.605 126.76C206.605 126.2 206.485 125.72 206.245 125.32C206.005 124.904 205.669 124.584 205.237 124.36C204.805 124.12 204.293 124 203.701 124H200.245V129.52ZM214.266 139.288C213.354 139.288 212.562 139.136 211.89 138.832C211.218 138.528 210.698 138.096 210.33 137.536C209.962 136.96 209.778 136.296 209.778 135.544C209.778 134.824 209.938 134.184 210.258 133.624C210.578 133.048 211.074 132.568 211.746 132.184C212.418 131.8 213.266 131.528 214.29 131.368L218.562 130.672V133.072L214.89 133.696C214.266 133.808 213.802 134.008 213.498 134.296C213.194 134.584 213.042 134.96 213.042 135.424C213.042 135.872 213.21 136.232 213.546 136.504C213.898 136.76 214.33 136.888 214.842 136.888C215.498 136.888 216.074 136.752 216.57 136.48C217.082 136.192 217.474 135.8 217.746 135.304C218.034 134.808 218.178 134.264 218.178 133.672V130.312C218.178 129.752 217.954 129.288 217.506 128.92C217.074 128.536 216.498 128.344 215.778 128.344C215.106 128.344 214.506 128.528 213.978 128.896C213.466 129.248 213.09 129.72 212.85 130.312L210.282 129.064C210.538 128.376 210.938 127.784 211.482 127.288C212.042 126.776 212.698 126.376 213.45 126.088C214.202 125.8 215.018 125.656 215.898 125.656C216.97 125.656 217.914 125.856 218.73 126.256C219.546 126.64 220.178 127.184 220.626 127.888C221.09 128.576 221.322 129.384 221.322 130.312V139H218.346V136.768L219.018 136.72C218.682 137.28 218.282 137.752 217.818 138.136C217.354 138.504 216.826 138.792 216.234 139C215.642 139.192 214.986 139.288 214.266 139.288ZM223.028 139V125.944H225.98V128.512L225.74 128.056C226.044 127.272 226.54 126.68 227.228 126.28C227.932 125.864 228.748 125.656 229.676 125.656C230.636 125.656 231.484 125.864 232.22 126.28C232.972 126.696 233.556 127.28 233.972 128.032C234.388 128.768 234.596 129.624 234.596 130.6V139H231.452V131.344C231.452 130.768 231.34 130.272 231.116 129.856C230.892 129.44 230.58 129.12 230.18 128.896C229.796 128.656 229.34 128.536 228.812 128.536C228.3 128.536 227.844 128.656 227.444 128.896C227.044 129.12 226.732 129.44 226.508 129.856C226.284 130.272 226.172 130.768 226.172 131.344V139H223.028ZM242.247 139.288C240.903 139.288 239.727 138.984 238.719 138.376C237.711 137.768 236.927 136.944 236.367 135.904C235.807 134.864 235.527 133.712 235.527 132.448C235.527 131.136 235.807 129.976 236.367 128.968C236.943 127.944 237.719 127.136 238.695 126.544C239.687 125.952 240.791 125.656 242.007 125.656C243.031 125.656 243.927 125.824 244.695 126.16C245.479 126.496 246.143 126.96 246.687 127.552C247.231 128.144 247.647 128.824 247.935 129.592C248.223 130.344 248.367 131.16 248.367 132.04C248.367 132.264 248.351 132.496 248.319 132.736C248.303 132.976 248.263 133.184 248.199 133.36H238.119V130.96H246.423L244.935 132.088C245.079 131.352 245.039 130.696 244.815 130.12C244.607 129.544 244.255 129.088 243.759 128.752C243.279 128.416 242.695 128.248 242.007 128.248C241.351 128.248 240.767 128.416 240.255 128.752C239.743 129.072 239.351 129.552 239.079 130.192C238.823 130.816 238.727 131.576 238.791 132.472C238.727 133.272 238.831 133.984 239.103 134.608C239.391 135.216 239.807 135.688 240.351 136.024C240.911 136.36 241.551 136.528 242.271 136.528C242.991 136.528 243.599 136.376 244.095 136.072C244.607 135.768 245.007 135.36 245.295 134.848L247.839 136.096C247.583 136.72 247.183 137.272 246.639 137.752C246.095 138.232 245.447 138.608 244.695 138.88C243.959 139.152 243.143 139.288 242.247 139.288ZM249.55 139V120.832H252.694V139H249.55Z" fill="white"/>
<path d="M3.744 118V106H7.872C10.944 106 13.376 105.136 15.168 103.408C17.024 101.616 17.952 99.248 17.952 96.304V46.48H31.104V95.824C31.104 100.24 30.144 104.112 28.224 107.44C26.368 110.768 23.68 113.36 20.16 115.216C16.704 117.072 12.608 118 7.872 118H3.744Z" fill="white"/>
<rect x="18" y="26" width="13" height="13" fill="white"/>
</svg>
