<svg width="64" height="64" viewBox="0 0 64 64" fill="none" xmlns="http://www.w3.org/2000/svg">
<path d="M3.54669 15.7953V13.3688C3.3411 9.89162 5.49089 6.27734 9.64071 6.27734C16.8947 5.46514 21.9658 5.48545 28.3974 6.27734C31.0827 6.27734 34.494 8.6454 34.494 11.5617C35.0777 30.6128 35.0168 42.5648 34.494 49.867C34.1133 55.2351 30.6513 56.8874 28.3974 57.0346C21.1359 57.5194 16.6485 57.5017 9.64071 57.0346C6.14572 56.8037 3.54669 54.6666 3.54669 51.7503V46.2527" stroke="#0C0E11" stroke-width="2" stroke-miterlimit="10" stroke-linecap="round"/>
<path d="M34.8967 47.2985V49.7249C35.1023 53.2021 32.9525 56.8164 28.8026 56.8164C21.5487 57.6286 16.4775 57.6083 10.0459 56.8164C7.36062 56.8164 3.94939 54.4483 3.94939 51.532C3.36562 32.4809 3.42653 20.5289 3.94939 13.2268C4.3301 7.85864 7.7921 6.20632 10.0459 6.05911C17.3075 5.57433 21.7949 5.5921 28.8026 6.05911C32.2976 6.29008 34.8967 8.42718 34.8967 11.3435V16.841" stroke="#0C0E11" stroke-width="2" stroke-miterlimit="10" stroke-linecap="round"/>
<path d="M14.1455 6.78125L14.8435 8.8422C17.6456 8.81175 19.4299 8.81936 23.3284 8.8422L24.298 6.78125" stroke="#0C0E11" stroke-width="2" stroke-miterlimit="10" stroke-linecap="round" stroke-linejoin="round"/>
<path d="M21.9469 50.6547C19.4011 50.6192 18.0153 50.6014 15.6016 50.6547" stroke="#0C0E11" stroke-width="2" stroke-miterlimit="10" stroke-linecap="round"/>
<path d="M1.24468 27.3594C1.28021 24.8137 1.29798 27.4684 1.24468 25.0547" stroke="#0C0E11" stroke-width="2" stroke-miterlimit="10" stroke-linecap="round"/>
<path d="M1.2105 20.2579C1.24604 17.7121 1.2638 20.3669 1.2105 17.9531" stroke="#0C0E11" stroke-width="2" stroke-miterlimit="10" stroke-linecap="round"/>
<path d="M36.5337 26.2097C36.5693 22.7389 36.587 20.8495 36.5337 17.5586" stroke="#0C0E11" stroke-width="2" stroke-miterlimit="10" stroke-linecap="round"/>
<path d="M34.8087 43.7148C34.8087 47.522 34.8087 48.7911 34.428 51.9637C33.6665 58.309 29.3517 58.309 19.1992 58.309C14.1357 58.309 3.85636 58.9436 3.53906 52.9155V48.7911" stroke="#0C0E11" stroke-width="2" stroke-miterlimit="10" stroke-linecap="round" stroke-linejoin="round"/>
</svg>
