<svg width="64" height="64" viewBox="0 0 64 64" fill="none" xmlns="http://www.w3.org/2000/svg">
<path d="M25.5996 42.6C23.2996 43.9 21.2996 45.9 20.5996 49C31.4996 49.1 44.2996 49 54.2996 49" stroke="#1A1C1E" stroke-width="2" stroke-miterlimit="10" stroke-linecap="round" stroke-linejoin="round"/>
<path d="M6 9C9.2 10 14.9 12.9 15.2 13.7C17.3 19.3 20.4 29.5 24.3 38.5C25.3 40.7 26 42.1 26.3 42.2C28.7 42.4 32.5 42.2 34.9 42.2C40.4 42.2 44.9 42.2 49.5 42.2C50.3 42.2 56.4 21.2 56.8 19.3C45.7 18.9 31.9 19 17.3 19" stroke="#1A1C1E" stroke-width="2" stroke-miterlimit="10" stroke-linecap="round" stroke-linejoin="round"/>
<path d="M30.5 18.9C31.7 26.1 31.8 35 33 42.2" stroke="#1A1C1E" stroke-width="1.5" stroke-miterlimit="10" stroke-linecap="round" stroke-linejoin="round"/>
<path d="M44.2998 19.3C43.4998 27.3 42.5998 35 41.7998 41.9" stroke="#1A1C1E" stroke-width="1.5" stroke-miterlimit="10" stroke-linecap="round" stroke-linejoin="round"/>
<path d="M22 30.3C32 30.6 42.6 30.6 53.3 30" stroke="#1A1C1E" stroke-width="1.5" stroke-miterlimit="10" stroke-linecap="round" stroke-linejoin="round"/>
<path d="M28.7003 49.1C31.6003 49.7 33.0003 52.8 31.2003 55.7C29.0003 59.3 23.3003 57.5 23.2003 53.7C23.0003 50.1 26.2003 48.6 28.7003 49.1Z" stroke="#1A1C1E" stroke-width="2" stroke-miterlimit="10" stroke-linecap="round" stroke-linejoin="round"/>
<path d="M45.5002 56.9C46.9002 57.7 48.7002 57.7 50.2002 56.8C53.8002 54.6 52.0002 49.1 47.7002 48.9C45.3002 48.8 43.5002 50.8 43.4002 53.2C43.3002 54.9 44.2002 56.2 45.5002 56.9Z" stroke="#1A1C1E" stroke-width="2" stroke-miterlimit="10" stroke-linecap="round" stroke-linejoin="round"/>
<path d="M25.7998 42.3C25.9998 42.9 26.6998 43 27.3998 43C35.3998 43 41.0998 43 47.9998 43C49.1998 43 49.5998 42.3 50.0998 41.2" stroke="#1A1C1E" stroke-width="2" stroke-miterlimit="10" stroke-linecap="round" stroke-linejoin="round"/>
<path d="M6 9.20001C9 10.4 12.1 12.3 15 13.7" stroke="#1A1C1E" stroke-width="2" stroke-miterlimit="10" stroke-linecap="round" stroke-linejoin="round"/>
</svg>
