<svg width="254" height="144" viewBox="0 0 254 144" fill="none" xmlns="http://www.w3.org/2000/svg">
<path d="M68.624 101.152C63.248 101.152 58.544 99.936 54.512 97.504C50.48 95.072 47.344 91.776 45.104 87.616C42.864 83.456 41.744 78.848 41.744 73.792C41.744 68.544 42.864 63.904 45.104 59.872C47.408 55.776 50.512 52.544 54.416 50.176C58.384 47.808 62.8 46.624 67.664 46.624C71.76 46.624 75.344 47.296 78.416 48.64C81.552 49.984 84.208 51.84 86.384 54.208C88.56 56.576 90.224 59.296 91.376 62.368C92.528 65.376 93.104 68.64 93.104 72.16C93.104 73.056 93.04 73.984 92.912 74.944C92.848 75.904 92.688 76.736 92.432 77.44H52.112V67.84H85.328L79.376 72.352C79.952 69.408 79.792 66.784 78.896 64.48C78.064 62.176 76.656 60.352 74.672 59.008C72.752 57.664 70.416 56.992 67.664 56.992C65.04 56.992 62.704 57.664 60.656 59.008C58.608 60.288 57.04 62.208 55.952 64.768C54.928 67.264 54.544 70.304 54.8 73.888C54.544 77.088 54.96 79.936 56.048 82.432C57.2 84.864 58.864 86.752 61.04 88.096C63.28 89.44 65.84 90.112 68.72 90.112C71.6 90.112 74.032 89.504 76.016 88.288C78.064 87.072 79.664 85.44 80.816 83.392L90.992 88.384C89.968 90.88 88.368 93.088 86.192 95.008C84.016 96.928 81.424 98.432 78.416 99.52C75.472 100.608 72.208 101.152 68.624 101.152ZM160.974 101.152C156.942 101.152 153.422 100.256 150.414 98.464C147.47 96.672 145.198 94.176 143.598 90.976C142.062 87.776 141.294 84.032 141.294 79.744V47.776H153.87V78.688C153.87 80.864 154.286 82.784 155.118 84.448C156.014 86.048 157.262 87.328 158.862 88.288C160.526 89.184 162.382 89.632 164.43 89.632C166.478 89.632 168.302 89.184 169.902 88.288C171.502 87.328 172.75 86.016 173.646 84.352C174.542 82.688 174.99 80.704 174.99 78.4V47.776H187.566V100H175.662V89.728L176.718 91.552C175.502 94.752 173.486 97.152 170.67 98.752C167.918 100.352 164.686 101.152 160.974 101.152ZM194.456 119.2V47.776H206.264V58.144L205.112 55.552C206.904 52.736 209.336 50.56 212.408 49.024C215.48 47.424 219.032 46.624 223.064 46.624C227.992 46.624 232.44 47.84 236.408 50.272C240.376 52.704 243.512 55.968 245.816 60.064C248.184 64.16 249.368 68.768 249.368 73.888C249.368 78.944 248.216 83.552 245.912 87.712C243.608 91.872 240.472 95.168 236.504 97.6C232.536 99.968 228.024 101.152 222.968 101.152C219.192 101.152 215.704 100.416 212.504 98.944C209.368 97.408 206.872 95.232 205.016 92.416L207.032 89.92V119.2H194.456ZM221.528 89.632C224.408 89.632 226.968 88.96 229.208 87.616C231.448 86.272 233.176 84.416 234.392 82.048C235.672 79.68 236.312 76.96 236.312 73.888C236.312 70.816 235.672 68.128 234.392 65.824C233.176 63.456 231.448 61.6 229.208 60.256C226.968 58.848 224.408 58.144 221.528 58.144C218.776 58.144 216.28 58.816 214.04 60.16C211.864 61.504 210.136 63.392 208.856 65.824C207.64 68.192 207.032 70.88 207.032 73.888C207.032 76.96 207.64 79.68 208.856 82.048C210.136 84.416 211.864 86.272 214.04 87.616C216.28 88.96 218.776 89.632 221.528 89.632Z" fill="black"/>
<path d="M117.709 101.152C112.141 101.152 107.277 99.84 103.117 97.216C99.0213 94.528 96.2053 90.912 94.6693 86.368L104.077 81.856C105.421 84.8 107.277 87.104 109.645 88.768C112.077 90.432 114.765 91.264 117.709 91.264C120.013 91.264 121.837 90.752 123.181 89.728C124.525 88.704 125.197 87.36 125.197 85.696C125.197 84.672 124.909 83.84 124.333 83.2C123.821 82.496 123.085 81.92 122.125 81.472C121.229 80.96 120.237 80.544 119.149 80.224L110.605 77.824C106.189 76.544 102.829 74.592 100.525 71.968C98.2853 69.344 97.1653 66.24 97.1653 62.656C97.1653 59.456 97.9653 56.672 99.5653 54.304C101.229 51.872 103.501 49.984 106.381 48.64C109.325 47.296 112.685 46.624 116.461 46.624C121.389 46.624 125.741 47.808 129.517 50.176C133.293 52.544 135.981 55.872 137.581 60.16L127.981 64.672C127.085 62.304 125.581 60.416 123.469 59.008C121.357 57.6 118.989 56.896 116.365 56.896C114.253 56.896 112.589 57.376 111.373 58.336C110.157 59.296 109.549 60.544 109.549 62.08C109.549 63.04 109.805 63.872 110.317 64.576C110.829 65.28 111.533 65.856 112.429 66.304C113.389 66.752 114.477 67.168 115.693 67.552L124.045 70.048C128.333 71.328 131.629 73.248 133.933 75.808C136.301 78.368 137.485 81.504 137.485 85.216C137.485 88.352 136.653 91.136 134.989 93.568C133.325 95.936 131.021 97.792 128.077 99.136C125.133 100.48 121.677 101.152 117.709 101.152Z" fill="#8223D2"/>
<path d="M170.752 139L166.264 125.944H169.576L172.864 135.856L171.712 135.832L175.216 125.944H178L181.48 135.832L180.328 135.856L183.616 125.944H186.928L182.44 139H179.632L176.08 128.656H177.136L173.536 139H170.752ZM187.451 139V125.944H190.595V139H187.451ZM187.451 124.48V121.12H190.595V124.48H187.451ZM192.298 139V125.944H195.25V128.848L195.01 128.416C195.314 127.44 195.786 126.76 196.426 126.376C197.082 125.992 197.866 125.8 198.778 125.8H199.546V128.584H198.418C197.522 128.584 196.802 128.864 196.258 129.424C195.714 129.968 195.442 130.736 195.442 131.728V139H192.298ZM206.267 139.288C204.923 139.288 203.747 138.984 202.739 138.376C201.731 137.768 200.947 136.944 200.387 135.904C199.827 134.864 199.547 133.712 199.547 132.448C199.547 131.136 199.827 129.976 200.387 128.968C200.963 127.944 201.739 127.136 202.715 126.544C203.707 125.952 204.811 125.656 206.027 125.656C207.051 125.656 207.947 125.824 208.715 126.16C209.499 126.496 210.163 126.96 210.707 127.552C211.251 128.144 211.667 128.824 211.955 129.592C212.243 130.344 212.387 131.16 212.387 132.04C212.387 132.264 212.371 132.496 212.339 132.736C212.323 132.976 212.283 133.184 212.219 133.36H202.139V130.96H210.443L208.955 132.088C209.099 131.352 209.059 130.696 208.835 130.12C208.627 129.544 208.275 129.088 207.779 128.752C207.299 128.416 206.715 128.248 206.027 128.248C205.371 128.248 204.787 128.416 204.275 128.752C203.763 129.072 203.371 129.552 203.099 130.192C202.843 130.816 202.747 131.576 202.811 132.472C202.747 133.272 202.851 133.984 203.123 134.608C203.411 135.216 203.827 135.688 204.371 136.024C204.931 136.36 205.571 136.528 206.291 136.528C207.011 136.528 207.619 136.376 208.115 136.072C208.627 135.768 209.027 135.36 209.315 134.848L211.859 136.096C211.603 136.72 211.203 137.272 210.659 137.752C210.115 138.232 209.467 138.608 208.715 138.88C207.979 139.152 207.163 139.288 206.267 139.288ZM213.57 139V120.832H216.714V139H213.57ZM224.609 139.288C223.265 139.288 222.089 138.984 221.081 138.376C220.073 137.768 219.289 136.944 218.729 135.904C218.169 134.864 217.889 133.712 217.889 132.448C217.889 131.136 218.169 129.976 218.729 128.968C219.305 127.944 220.081 127.136 221.057 126.544C222.049 125.952 223.153 125.656 224.369 125.656C225.393 125.656 226.289 125.824 227.057 126.16C227.841 126.496 228.505 126.96 229.049 127.552C229.593 128.144 230.009 128.824 230.297 129.592C230.585 130.344 230.729 131.16 230.729 132.04C230.729 132.264 230.713 132.496 230.681 132.736C230.665 132.976 230.625 133.184 230.561 133.36H220.481V130.96H228.785L227.297 132.088C227.441 131.352 227.401 130.696 227.177 130.12C226.969 129.544 226.617 129.088 226.121 128.752C225.641 128.416 225.057 128.248 224.369 128.248C223.713 128.248 223.129 128.416 222.617 128.752C222.105 129.072 221.713 129.552 221.441 130.192C221.185 130.816 221.089 131.576 221.153 132.472C221.089 133.272 221.193 133.984 221.465 134.608C221.753 135.216 222.169 135.688 222.713 136.024C223.273 136.36 223.913 136.528 224.633 136.528C225.353 136.528 225.961 136.376 226.457 136.072C226.969 135.768 227.369 135.36 227.657 134.848L230.201 136.096C229.945 136.72 229.545 137.272 229.001 137.752C228.457 138.232 227.809 138.608 227.057 138.88C226.321 139.152 225.505 139.288 224.609 139.288ZM236.88 139.288C235.488 139.288 234.272 138.96 233.232 138.304C232.208 137.632 231.504 136.728 231.12 135.592L233.472 134.464C233.808 135.2 234.272 135.776 234.864 136.192C235.472 136.608 236.144 136.816 236.88 136.816C237.456 136.816 237.912 136.688 238.248 136.432C238.584 136.176 238.752 135.84 238.752 135.424C238.752 135.168 238.68 134.96 238.536 134.8C238.408 134.624 238.224 134.48 237.984 134.368C237.76 134.24 237.512 134.136 237.24 134.056L235.104 133.456C234 133.136 233.16 132.648 232.584 131.992C232.024 131.336 231.744 130.56 231.744 129.664C231.744 128.864 231.944 128.168 232.344 127.576C232.76 126.968 233.328 126.496 234.048 126.16C234.784 125.824 235.624 125.656 236.568 125.656C237.8 125.656 238.888 125.952 239.832 126.544C240.776 127.136 241.448 127.968 241.848 129.04L239.448 130.168C239.224 129.576 238.848 129.104 238.32 128.752C237.792 128.4 237.2 128.224 236.544 128.224C236.016 128.224 235.6 128.344 235.296 128.584C234.992 128.824 234.84 129.136 234.84 129.52C234.84 129.76 234.904 129.968 235.032 130.144C235.16 130.32 235.336 130.464 235.56 130.576C235.8 130.688 236.072 130.792 236.376 130.888L238.464 131.512C239.536 131.832 240.36 132.312 240.936 132.952C241.528 133.592 241.824 134.376 241.824 135.304C241.824 136.088 241.616 136.784 241.2 137.392C240.784 137.984 240.208 138.448 239.472 138.784C238.736 139.12 237.872 139.288 236.88 139.288ZM248.009 139.288C246.617 139.288 245.401 138.96 244.361 138.304C243.337 137.632 242.633 136.728 242.249 135.592L244.601 134.464C244.937 135.2 245.401 135.776 245.993 136.192C246.601 136.608 247.273 136.816 248.009 136.816C248.585 136.816 249.041 136.688 249.377 136.432C249.713 136.176 249.881 135.84 249.881 135.424C249.881 135.168 249.809 134.96 249.665 134.8C249.537 134.624 249.353 134.48 249.113 134.368C248.889 134.24 248.641 134.136 248.369 134.056L246.233 133.456C245.129 133.136 244.289 132.648 243.713 131.992C243.153 131.336 242.873 130.56 242.873 129.664C242.873 128.864 243.073 128.168 243.473 127.576C243.889 126.968 244.457 126.496 245.177 126.16C245.913 125.824 246.753 125.656 247.697 125.656C248.929 125.656 250.017 125.952 250.961 126.544C251.905 127.136 252.577 127.968 252.977 129.04L250.577 130.168C250.353 129.576 249.977 129.104 249.449 128.752C248.921 128.4 248.329 128.224 247.673 128.224C247.145 128.224 246.729 128.344 246.425 128.584C246.121 128.824 245.969 129.136 245.969 129.52C245.969 129.76 246.033 129.968 246.161 130.144C246.289 130.32 246.465 130.464 246.689 130.576C246.929 130.688 247.201 130.792 247.505 130.888L249.593 131.512C250.665 131.832 251.489 132.312 252.065 132.952C252.657 133.592 252.953 134.376 252.953 135.304C252.953 136.088 252.745 136.784 252.329 137.392C251.913 137.984 251.337 138.448 250.601 138.784C249.865 139.12 249.001 139.288 248.009 139.288Z" fill="black"/>
<path d="M3.744 118V106H7.872C10.944 106 13.376 105.136 15.168 103.408C17.024 101.616 17.952 99.248 17.952 96.304V46.48H31.104V95.824C31.104 100.24 30.144 104.112 28.224 107.44C26.368 110.768 23.68 113.36 20.16 115.216C16.704 117.072 12.608 118 7.872 118H3.744Z" fill="black"/>
<rect x="18" y="26" width="13" height="13" fill="#8223D2"/>
</svg>
